<svg id="Component_22_1" data-name="Component 22 – 1" xmlns="http://www.w3.org/2000/svg" width="70" height="59.63" viewBox="0 0 70 59.63">
  <path id="Path_51" data-name="Path 51" d="M24.741,2C14.37,2,4,3.3,4,12.37V37a9.084,9.084,0,0,0,9.074,9.074L9.185,49.963v1.3h5.781l5.185-5.185h9.774l5.185,5.185H40.3v-1.3l-3.889-3.889A9.084,9.084,0,0,0,45.481,37V12.37C45.481,3.3,36.2,2,24.741,2ZM13.074,40.889A3.889,3.889,0,1,1,16.963,37,3.884,3.884,0,0,1,13.074,40.889Zm9.074-18.148H9.185V12.37H22.148Zm5.185,0V12.37H40.3v10.37Zm9.074,18.148A3.889,3.889,0,1,1,40.3,37,3.884,3.884,0,0,1,36.407,40.889Z" transform="translate(-4 5.778)"/>
  <text id="_" data-name="?" transform="translate(41.481 48)" font-size="50" font-family="HelveticaNeue, Helvetica Neue"><tspan x="0" y="0">?</tspan></text>
</svg>
