<svg id="Component_1_1" data-name="Component 1 – 1" xmlns="http://www.w3.org/2000/svg" width="243.63" height="187.439" viewBox="0 0 243.63 187.439">
  <path id="Subtraction_1" data-name="Subtraction 1" d="M930.5-941a51.978,51.978,0,0,1-19.657-3.811,50.5,50.5,0,0,1-16.052-10.394,48.279,48.279,0,0,1-10.823-15.416A46.552,46.552,0,0,1,880-989.5a46.553,46.553,0,0,1,3.969-18.878,48.28,48.28,0,0,1,10.823-15.416,50.5,50.5,0,0,1,16.052-10.394A51.976,51.976,0,0,1,930.5-1038a51.976,51.976,0,0,1,19.657,3.811,50.5,50.5,0,0,1,16.052,10.394,48.281,48.281,0,0,1,10.823,15.416A46.553,46.553,0,0,1,981-989.5a46.552,46.552,0,0,1-3.969,18.878,48.279,48.279,0,0,1-10.823,15.416,50.5,50.5,0,0,1-16.052,10.394A51.978,51.978,0,0,1,930.5-941Zm.5-82a33.786,33.786,0,0,0-13.234,2.672,33.886,33.886,0,0,0-10.807,7.287,33.886,33.886,0,0,0-7.286,10.807A33.788,33.788,0,0,0,897-989a33.788,33.788,0,0,0,2.672,13.234,33.885,33.885,0,0,0,7.286,10.807,33.886,33.886,0,0,0,10.807,7.287A33.786,33.786,0,0,0,931-955a33.789,33.789,0,0,0,13.235-2.672,33.886,33.886,0,0,0,10.807-7.287,33.885,33.885,0,0,0,7.286-10.807A33.788,33.788,0,0,0,965-989a33.788,33.788,0,0,0-2.672-13.234,33.886,33.886,0,0,0-7.286-10.807,33.886,33.886,0,0,0-10.807-7.287A33.789,33.789,0,0,0,931-1023Z" transform="translate(-880 1128.439)" fill="#0d212c"/>
  <path id="Subtraction_2" data-name="Subtraction 2" d="M930.5-941a51.978,51.978,0,0,1-19.657-3.811,50.5,50.5,0,0,1-16.052-10.394,48.279,48.279,0,0,1-10.823-15.416A46.552,46.552,0,0,1,880-989.5a46.553,46.553,0,0,1,3.969-18.878,48.28,48.28,0,0,1,10.823-15.416,50.5,50.5,0,0,1,16.052-10.394A51.976,51.976,0,0,1,930.5-1038a51.976,51.976,0,0,1,19.657,3.811,50.5,50.5,0,0,1,16.052,10.394,48.281,48.281,0,0,1,10.823,15.416A46.553,46.553,0,0,1,981-989.5a46.552,46.552,0,0,1-3.969,18.878,48.279,48.279,0,0,1-10.823,15.416,50.5,50.5,0,0,1-16.052,10.394A51.978,51.978,0,0,1,930.5-941Zm.5-82a33.786,33.786,0,0,0-13.234,2.672,33.886,33.886,0,0,0-10.807,7.287,33.886,33.886,0,0,0-7.286,10.807A33.788,33.788,0,0,0,897-989a33.788,33.788,0,0,0,2.672,13.234,33.885,33.885,0,0,0,7.286,10.807,33.886,33.886,0,0,0,10.807,7.287A33.786,33.786,0,0,0,931-955a33.789,33.789,0,0,0,13.235-2.672,33.886,33.886,0,0,0,10.807-7.287,33.885,33.885,0,0,0,7.286-10.807A33.788,33.788,0,0,0,965-989a33.788,33.788,0,0,0-2.672-13.234,33.886,33.886,0,0,0-7.286-10.807,33.886,33.886,0,0,0-10.807-7.287A33.789,33.789,0,0,0,931-1023Z" transform="translate(-880 1128.439)" fill="#0d212c"/>
  <rect id="Rectangle_42" data-name="Rectangle 42" width="60" height="25" transform="translate(21 78.439)" fill="#0d212c"/>
  <path id="Subtraction_3" data-name="Subtraction 3" d="M930.5-941a51.978,51.978,0,0,1-19.657-3.811,50.5,50.5,0,0,1-16.052-10.394,48.279,48.279,0,0,1-10.823-15.416A46.552,46.552,0,0,1,880-989.5a46.553,46.553,0,0,1,3.969-18.878,48.28,48.28,0,0,1,10.823-15.416,50.5,50.5,0,0,1,16.052-10.394A51.976,51.976,0,0,1,930.5-1038a51.976,51.976,0,0,1,19.657,3.811,50.5,50.5,0,0,1,16.052,10.394,48.281,48.281,0,0,1,10.823,15.416A46.553,46.553,0,0,1,981-989.5a46.552,46.552,0,0,1-3.969,18.878,48.279,48.279,0,0,1-10.823,15.416,50.5,50.5,0,0,1-16.052,10.394A51.978,51.978,0,0,1,930.5-941Zm.5-82a33.786,33.786,0,0,0-13.234,2.672,33.886,33.886,0,0,0-10.807,7.287,33.886,33.886,0,0,0-7.286,10.807A33.788,33.788,0,0,0,897-989a33.788,33.788,0,0,0,2.672,13.234,33.885,33.885,0,0,0,7.286,10.807,33.886,33.886,0,0,0,10.807,7.287A33.786,33.786,0,0,0,931-955a33.789,33.789,0,0,0,13.235-2.672,33.886,33.886,0,0,0,10.807-7.287,33.885,33.885,0,0,0,7.286-10.807A33.788,33.788,0,0,0,965-989a33.788,33.788,0,0,0-2.672-13.234,33.886,33.886,0,0,0-7.286-10.807,33.886,33.886,0,0,0-10.807-7.287A33.789,33.789,0,0,0,931-1023Z" transform="matrix(0.799, -0.602, 0.602, 0.799, 26.476, 1445.97)" fill="#0d212c"/>
  <path id="Subtraction_4" data-name="Subtraction 4" d="M930.5-941a51.978,51.978,0,0,1-19.657-3.811,50.5,50.5,0,0,1-16.052-10.394,48.279,48.279,0,0,1-10.823-15.416A46.552,46.552,0,0,1,880-989.5a46.553,46.553,0,0,1,3.969-18.878,48.28,48.28,0,0,1,10.823-15.416,50.5,50.5,0,0,1,16.052-10.394A51.976,51.976,0,0,1,930.5-1038a51.976,51.976,0,0,1,19.657,3.811,50.5,50.5,0,0,1,16.052,10.394,48.281,48.281,0,0,1,10.823,15.416A46.553,46.553,0,0,1,981-989.5a46.552,46.552,0,0,1-3.969,18.878,48.279,48.279,0,0,1-10.823,15.416,50.5,50.5,0,0,1-16.052,10.394A51.978,51.978,0,0,1,930.5-941Zm.5-82a33.786,33.786,0,0,0-13.234,2.672,33.886,33.886,0,0,0-10.807,7.287,33.886,33.886,0,0,0-7.286,10.807A33.788,33.788,0,0,0,897-989a33.788,33.788,0,0,0,2.672,13.234,33.885,33.885,0,0,0,7.286,10.807,33.886,33.886,0,0,0,10.807,7.287A33.786,33.786,0,0,0,931-955a33.789,33.789,0,0,0,13.235-2.672,33.886,33.886,0,0,0,10.807-7.287,33.885,33.885,0,0,0,7.286-10.807A33.788,33.788,0,0,0,965-989a33.788,33.788,0,0,0-2.672-13.234,33.886,33.886,0,0,0-7.286-10.807,33.886,33.886,0,0,0-10.807-7.287A33.789,33.789,0,0,0,931-1023Z" transform="matrix(0.799, -0.602, 0.602, 0.799, 26.476, 1445.97)" fill="#0d212c"/>
  <rect id="Rectangle_43" data-name="Rectangle 43" width="60" height="25" transform="matrix(0.799, -0.602, 0.602, 0.799, 114.141, 65.167)" fill="#0d212c"/>
  <path id="Subtraction_5" data-name="Subtraction 5" d="M890-1014h-1a9.01,9.01,0,0,1-9-9v-6a9.01,9.01,0,0,1,9-9h1a9.01,9.01,0,0,1,9,9v6A9.01,9.01,0,0,1,890-1014Zm-.5-21a6.507,6.507,0,0,0-6.5,6.5v5a6.507,6.507,0,0,0,6.5,6.5,6.508,6.508,0,0,0,6.5-6.5v-5A6.508,6.508,0,0,0,889.5-1035Z" transform="translate(-839 1079.439)" fill="#0d212c"/>
  <path id="Subtraction_6" data-name="Subtraction 6" d="M890-1014h-1a9.01,9.01,0,0,1-9-9v-6a9.01,9.01,0,0,1,9-9h1a9.01,9.01,0,0,1,9,9v6A9.01,9.01,0,0,1,890-1014Zm-.5-21a6.507,6.507,0,0,0-6.5,6.5v5a6.507,6.507,0,0,0,6.5,6.5,6.508,6.508,0,0,0,6.5-6.5v-5A6.508,6.508,0,0,0,889.5-1035Z" transform="translate(-1293.507 71.63) rotate(47)" fill="#0d212c"/>
  <path id="Subtraction_7" data-name="Subtraction 7" d="M890-1014h-1a9.01,9.01,0,0,1-9-9v-6a9.01,9.01,0,0,1,9-9h1a9.01,9.01,0,0,1,9,9v6A9.01,9.01,0,0,1,890-1014Zm-.5-21a6.507,6.507,0,0,0-6.5,6.5v5a6.507,6.507,0,0,0,6.5,6.5,6.508,6.508,0,0,0,6.5-6.5v-5A6.508,6.508,0,0,0,889.5-1035Z" transform="translate(-761.453 -1042.71) rotate(100)" fill="#0d212c"/>
  <path id="Subtraction_8" data-name="Subtraction 8" d="M890-1014h-1a9.01,9.01,0,0,1-9-9v-6a9.01,9.01,0,0,1,9-9h1a9.01,9.01,0,0,1,9,9v6A9.01,9.01,0,0,1,890-1014Zm-.5-21a6.507,6.507,0,0,0-6.5,6.5v5a6.507,6.507,0,0,0,6.5,6.5,6.508,6.508,0,0,0,6.5-6.5v-5A6.508,6.508,0,0,0,889.5-1035Z" transform="translate(-68.267 -1315.992) rotate(131)" fill="#0d212c"/>
  <rect id="Rectangle_52" data-name="Rectangle 52" width="3" height="24" rx="1.5" transform="translate(49 58.439)" fill="#0d212c"/>
  <rect id="Rectangle_53" data-name="Rectangle 53" width="3" height="24" rx="1.5" transform="matrix(0.899, 0.438, -0.438, 0.899, 58.412, 25.996)" fill="#0d212c"/>
  <rect id="Rectangle_54" data-name="Rectangle 54" width="3" height="24" rx="1.5" transform="matrix(0.326, 0.946, -0.946, 0.326, 88.358, 9.114)" fill="#0d212c"/>
  <rect id="Rectangle_55" data-name="Rectangle 55" width="3" height="24" rx="1.5" transform="translate(120.381 23.717) rotate(123)" fill="#0d212c"/>
  <rect id="Rectangle_56" data-name="Rectangle 56" width="3" height="24" rx="1.5" transform="translate(143.644 48.353) rotate(138)" fill="#0d212c"/>
</svg>
